<?xml version="1.0" standalone="no"?>
<!DOCTYPE svg PUBLIC "-//W3C//DTD SVG 20010904//EN"
 "http://www.w3.org/TR/2001/REC-SVG-20010904/DTD/svg10.dtd">
<svg version="1.0" xmlns="http://www.w3.org/2000/svg"
 width="1024.000000pt" height="1024.000000pt" viewBox="0 0 1024.000000 1024.000000"
 preserveAspectRatio="xMidYMid meet">

<g transform="translate(0.000000,1024.000000) scale(0.100000,-0.100000)"
fill="#000000" stroke="none">
<path d="M0 5120 l0 -5120 5120 0 5120 0 0 5120 0 5120 -5120 0 -5120 0 0
-5120z m2880 1330 c0 -21 41 -50 70 -50 19 0 33 -7 40 -20 7 -14 21 -20 43
-20 36 0 47 -6 63 -35 7 -12 24 -21 43 -23 17 -2 31 -8 31 -14 0 -5 -7 -7 -15
-4 -10 4 -20 -3 -27 -19 -6 -14 -15 -25 -20 -25 -4 0 -8 -7 -8 -15 0 -8 5 -14
11 -12 6 1 14 -4 16 -10 3 -7 -1 -13 -9 -13 -9 0 -10 -2 -1 -8 6 -4 13 -20 15
-37 3 -26 -1 -30 -35 -40 -31 -9 -36 -13 -25 -22 7 -6 29 -13 48 -16 19 -2
-147 -4 -370 -5 -234 0 -397 3 -385 8 18 8 18 9 -5 9 -24 1 -66 20 -45 21 6 0
3 5 -5 10 -8 5 -58 10 -110 10 l-95 0 -327 -438 c-395 -528 -389 -520 -380
-524 4 -2 30 -35 57 -73 141 -199 201 -274 219 -275 14 0 16 -3 8 -13 -8 -9 3
-30 41 -82 29 -39 85 -115 124 -170 87 -122 105 -144 98 -125 -4 10 2 15 20
16 17 1 26 -5 31 -20 4 -11 14 -26 23 -33 14 -11 14 -13 -4 -14 -11 -1 -24 -1
-28 0 -5 1 -7 -4 -4 -11 2 -7 12 -12 22 -10 41 8 67 -11 122 -86 31 -42 62
-80 67 -84 6 -4 236 -9 511 -10 275 -1 483 -3 462 -5 -20 -2 -35 -8 -32 -14 4
-5 1 -9 -4 -9 -6 0 -11 -9 -11 -20 0 -16 7 -20 35 -20 19 0 35 -4 35 -10 0 -5
-24 -10 -53 -10 -44 0 -55 -4 -71 -25 -33 -43 -64 -74 -69 -68 -3 3 -15 -13
-27 -36 -16 -31 -26 -41 -45 -41 -17 0 -29 -8 -37 -25 -11 -24 -14 -25 -127
-27 l-116 -2 95 -6 c52 -3 80 -7 62 -8 -19 -1 -31 -6 -27 -12 3 -5 -2 -11 -12
-12 -10 -1 7 -4 37 -7 30 -4 -135 -10 -368 -15 -436 -9 -452 -8 -452 30 0 10
-14 14 -47 14 -44 0 -50 4 -77 40 -17 22 -35 40 -41 40 -11 0 -44 41 -144 179
-29 41 -63 82 -74 91 -24 20 -15 40 18 40 30 0 24 23 -11 38 -35 17 -30 30 14
35 28 3 23 4 -19 5 l-57 2 -58 73 c-31 39 -65 79 -74 89 -26 25 -220 295 -220
305 0 6 -9 18 -19 28 -13 11 -21 33 -23 64 -3 43 -5 46 -33 49 -16 2 -37 11
-45 21 -24 27 -60 80 -60 88 -1 4 -14 19 -30 33 -17 13 -30 32 -30 42 0 15 9
18 53 18 48 1 50 2 33 15 -16 12 -17 18 -8 27 22 22 12 28 -48 28 -63 0 -69 4
-45 36 8 10 15 27 15 37 0 9 6 17 13 17 6 0 21 19 32 41 10 23 25 44 32 46 7
3 13 9 13 14 0 11 49 59 60 59 6 0 10 8 10 18 0 32 22 42 87 42 51 0 65 3 70
18 4 9 11 20 17 24 6 4 1 8 -12 8 -30 0 -24 25 6 25 11 0 24 4 28 8 4 4 -18 7
-49 7 -31 0 -58 3 -60 8 -3 4 22 41 54 82 32 41 83 109 113 150 30 41 69 91
86 110 17 19 49 58 71 87 39 52 39 52 101 55 80 4 95 28 17 28 -53 0 -53 0
-32 19 13 13 39 21 69 23 70 4 71 28 0 28 -34 0 -56 4 -56 11 0 12 53 89 92
133 55 63 78 91 78 99 0 4 25 7 55 7 42 0 55 3 55 15 0 13 61 15 490 15 320 0
490 -3 490 -10z m-1449 -311 l-10 -24 0 26 c-1 14 2 29 6 33 12 12 14 -9 4
-35z m4293 -516 c4 -236 6 -607 6 -825 -1 -389 -1 -398 -21 -412 -20 -13 -20
-14 -2 -19 10 -3 -30 -5 -89 -6 l-108 -1 0 26 c0 23 -3 25 -37 23 -21 -1 -48
3 -60 9 -15 8 -24 9 -28 2 -5 -8 -11 -7 -21 0 -10 9 -26 8 -65 -5 -32 -11 -87
-18 -136 -19 -74 -1 -82 -12 -10 -15 15 -1 27 -5 27 -9 0 -5 12 -13 28 -19
l27 -11 -25 -1 c-59 -2 -160 22 -227 55 -181 88 -269 235 -289 485 -11 140 21
342 68 434 18 33 82 115 91 115 4 0 5 -6 1 -12 -5 -9 -3 -9 9 1 9 7 14 17 12
22 -8 11 42 42 55 34 6 -4 9 -1 8 6 -4 16 83 46 161 55 104 11 198 -10 324
-74 4 -2 7 127 7 286 0 223 3 292 13 295 6 3 71 6 143 6 l131 1 7 -427z m546
292 l0 -135 -145 0 c-90 0 -145 -4 -145 -10 0 -5 -7 -10 -15 -10 -13 0 -15 22
-15 139 0 102 3 141 13 144 6 3 78 6 160 6 l147 1 0 -135z m37 79 c-3 -3 -12
-4 -19 -1 -8 3 -5 6 6 6 11 1 17 -2 13 -5z m20 -66 c-3 -8 -6 -5 -6 6 -1 11 2
17 5 13 3 -3 4 -12 1 -19z m-3225 -67 c37 -12 74 -28 83 -37 8 -8 15 -12 15
-8 0 4 7 -1 16 -12 8 -10 12 -13 9 -6 -10 19 47 -11 66 -35 13 -17 13 -17 -6
-4 -11 8 2 -9 30 -37 27 -29 55 -50 61 -48 6 2 11 -2 11 -10 0 -7 -5 -10 -10
-7 -6 3 5 -16 24 -43 18 -27 31 -50 29 -50 -3 -1 3 -11 13 -21 9 -11 14 -22
11 -25 -3 -4 0 -16 6 -29 7 -12 14 -46 17 -75 5 -49 4 -53 -18 -56 -18 -2 -24
-9 -23 -25 1 -22 -2 -23 -93 -23 l-93 0 0 26 c0 24 -3 25 -41 23 l-41 -3 -33
71 c-26 55 -42 78 -75 99 -131 87 -320 -3 -378 -180 -12 -37 -22 -80 -22 -96
0 -17 -4 -30 -10 -30 -5 0 -10 15 -10 33 l-1 32 -19 -35 c-11 -21 -19 -28 -20
-18 0 9 4 19 10 23 6 3 6 15 0 29 -5 13 -6 27 -3 30 4 3 2 6 -4 6 -15 0 -27
-190 -18 -281 9 -88 19 -119 40 -119 8 0 15 -4 15 -10 0 -5 6 -10 13 -10 6 0
21 -21 31 -48 19 -47 128 -166 141 -154 3 4 10 0 15 -8 7 -11 28 -15 82 -15
106 1 166 14 153 34 -2 5 5 17 16 27 26 23 54 78 64 122 l7 32 154 0 154 0 0
-41 c0 -44 -39 -153 -76 -209 -80 -125 -257 -235 -397 -248 -32 -3 -53 -8 -47
-12 6 -4 32 -3 58 1 27 6 48 5 51 0 3 -5 26 -8 51 -6 l45 2 -45 -15 c-31 -10
-90 -15 -185 -15 -127 -1 -148 1 -222 26 -158 53 -293 168 -362 309 -42 85
-71 225 -78 381 l-6 127 -111 2 -111 2 111 3 110 4 12 100 c36 302 191 501
444 569 99 27 291 22 390 -9z m3043 -101 l-20 -9 20 -1 c11 0 29 -7 39 -15 19
-14 18 -15 -15 -17 -82 -4 -124 -2 -121 5 1 4 2 16 2 27 0 18 6 20 58 19 41 0
51 -3 37 -9z m-2797 -40 c17 -27 10 -25 -19 6 -13 14 -17 23 -9 19 9 -3 21
-14 28 -25z m-2322 -146 c-9 -8 -14 -20 -11 -25 4 -5 0 -9 -8 -9 -13 0 -13 4
-4 25 7 14 18 25 25 25 10 0 9 -4 -2 -16z m3222 -59 c29 -9 50 -20 47 -25 -3
-6 1 -7 9 -4 13 5 76 -21 76 -32 0 -2 -13 2 -30 11 -47 24 -35 10 18 -21 26
-15 64 -46 85 -68 20 -23 43 -41 50 -41 6 0 12 -9 13 -20 0 -11 6 -33 12 -48
7 -16 17 -48 23 -73 6 -24 14 -44 18 -44 3 0 8 -78 9 -172 4 -242 -22 -328
-130 -436 -88 -89 -191 -138 -318 -151 -69 -8 -71 -8 -22 -10 33 -1 54 -6 58
-14 3 -8 18 -12 42 -10 l37 3 -35 -11 c-21 -7 -72 -9 -125 -6 -148 9 -273 64
-371 161 -116 116 -157 238 -156 466 1 214 39 328 144 433 56 56 166 112 248
126 75 13 233 6 298 -14z m4094 11 c60 -6 147 -40 198 -76 32 -23 33 -22 30
28 l-2 32 184 -1 c101 -1 171 -4 156 -6 -20 -3 -28 -10 -28 -24 0 -15 7 -19
35 -19 19 0 35 -4 35 -10 0 -5 -15 -7 -34 -5 l-35 5 -4 -528 c-4 -586 -4 -580
-74 -715 -98 -186 -357 -295 -601 -253 -79 14 -277 82 -307 106 -5 4 -19 4
-30 -1 -44 -17 -45 -15 -45 118 l0 126 104 -6 c88 -6 116 -12 172 -38 37 -16
92 -35 123 -41 69 -13 179 -5 219 16 74 38 149 172 139 249 -3 21 -1 35 4 31
5 -3 9 2 9 10 0 9 4 16 8 16 4 0 8 9 9 21 1 15 -6 10 -28 -21 -35 -48 -101
-92 -172 -116 -38 -13 -74 -15 -156 -12 -94 4 -116 8 -173 35 -37 17 -88 51
-115 75 -33 30 -43 35 -32 18 8 -14 50 -49 93 -77 88 -60 91 -69 7 -21 -114
65 -202 183 -245 327 -21 72 -22 322 -1 400 37 141 123 247 255 314 71 36 171
59 225 51 11 -1 46 -5 77 -8z m-1058 -12 c68 -17 183 -86 197 -118 5 -12 22
-42 38 -67 56 -90 62 -151 59 -576 -3 -333 -1 -383 12 -387 8 -2 -38 -4 -102
-5 -118 -1 -145 7 -86 24 17 6 34 16 36 24 4 12 -6 13 -55 8 -33 -4 -67 -9
-76 -13 -16 -6 -17 22 -17 348 0 351 0 355 -23 399 -31 60 -93 92 -157 83 -61
-9 -102 -28 -147 -66 -21 -18 -32 -26 -25 -17 14 18 6 52 -11 42 -6 -3 -7 -1
-3 6 4 6 11 9 16 6 5 -3 11 -1 15 5 4 6 -5 10 -19 10 -14 0 -29 0 -33 0 -4 0
-8 -7 -9 -16 -2 -10 -9 -21 -18 -26 -25 -14 -29 -63 -31 -413 -1 -187 -5 -352
-10 -367 -7 -26 -5 -28 24 -28 31 0 31 0 31 55 0 42 -3 55 -15 55 -18 0 -21
60 -5 91 6 10 14 61 19 112 7 81 8 67 10 -115 l1 -208 -140 0 c-120 0 -140 2
-140 16 0 8 5 12 10 9 18 -11 32 5 19 21 -9 11 -24 13 -60 8 l-49 -7 0 551 0
550 168 0 c92 0 158 -3 147 -6 -11 -4 -20 -14 -20 -22 0 -25 70 -25 112 1 19
12 52 28 72 35 50 18 191 17 265 -2z m-972 -11 l-34 -4 7 -533 7 -532 -26 -29
c-14 -15 -26 -32 -26 -36 0 -5 -40 -9 -90 -9 l-90 0 0 30 c0 28 -2 30 -27 24
-16 -4 -32 -7 -38 -8 -10 -1 -21 1065 -11 1091 4 10 45 13 183 11 98 0 163 -3
145 -5z m35 -49 c-3 -3 -12 -4 -19 -1 -8 3 -5 6 6 6 11 1 17 -2 13 -5z m1238
-184 c33 -64 32 -78 -1 -20 -14 25 -29 47 -32 50 -4 3 -8 11 -10 18 -5 27 19
-1 43 -48z m-1795 -162 c0 -104 -7 -116 -10 -18 -3 81 -1 110 5 110 3 0 5 -41
5 -92z m-3163 6 c-3 -3 -12 -4 -19 -1 -8 3 -5 6 6 6 11 1 17 -2 13 -5z m20
-86 c-2 -18 -4 -4 -4 32 0 36 2 50 4 33 2 -18 2 -48 0 -65z m-1644 -115 c-7
-2 -19 -2 -25 0 -7 3 -2 5 12 5 14 0 19 -2 13 -5z m5894 -95 c-2 -13 -4 -3 -4
22 0 25 2 35 4 23 2 -13 2 -33 0 -45z m-3827 -112 c0 -2 -7 -7 -16 -10 -8 -3
-12 -2 -9 4 6 10 25 14 25 6z m3807 -251 c0 -8 -6 -15 -13 -15 -8 0 -11 6 -8
15 4 8 9 15 13 15 4 0 8 -7 8 -15z m-1534 -63 c-4 -16 2 -15 38 4 17 8 33 13
36 10 8 -7 -72 -43 -112 -50 l-30 -6 32 12 c37 15 43 29 16 40 -16 7 -16 8 2
5 11 -2 19 -9 18 -15z m-3899 -128 c3 -8 2 -12 -4 -9 -6 3 -10 10 -10 16 0 14
7 11 14 -7z m6479 -239 c1 -5 -6 -11 -15 -13 -11 -2 -18 3 -18 13 0 17 30 18
33 0z m132 -55 c40 -16 43 -19 16 -14 -41 8 -102 33 -81 34 8 0 38 -9 65 -20z"/>
<path d="M2043 4312 c-1 -11 6 -18 19 -19 19 -2 19 -1 3 18 -22 23 -20 23 -22
1z"/>
<path d="M5131 5269 c-47 -19 -82 -52 -109 -102 -25 -49 -26 -59 -27 -197 0
-144 1 -145 34 -213 30 -62 38 -71 84 -93 91 -42 190 -28 256 36 55 53 71 110
71 244 -1 167 -16 213 -91 264 -30 21 -42 23 -98 19 -46 -4 -60 -2 -47 5 17 9
17 10 -1 24 -16 12 -13 13 31 14 27 0 46 -3 42 -7 -4 -4 15 -15 41 -24 26 -9
57 -20 68 -24 40 -17 -7 27 -50 46 -44 20 -162 25 -204 8z"/>
<path d="M5384 4454 c-18 -14 -18 -15 4 -4 12 6 22 13 22 15 0 8 -5 6 -26 -11z"/>
<path d="M2758 5574 c-16 -8 -28 -17 -28 -19 0 -6 32 6 55 22 26 18 7 16 -27
-3z"/>
<path d="M2669 5493 c-13 -16 -12 -17 4 -4 9 7 17 15 17 17 0 8 -8 3 -21 -13z"/>
<path d="M2710 5479 c0 -5 5 -7 10 -4 6 3 10 8 10 11 0 2 -4 4 -10 4 -5 0 -10
-5 -10 -11z"/>
<path d="M2606 5355 c-3 -8 -1 -15 4 -15 6 0 10 7 10 15 0 8 -2 15 -4 15 -2 0
-6 -7 -10 -15z"/>
<path d="M2624 5310 c0 -20 7 -25 19 -14 7 7 -2 34 -12 34 -4 0 -7 -9 -7 -20z"/>
<path d="M2650 4865 c7 -9 15 -13 17 -11 7 7 -7 26 -19 26 -6 0 -6 -6 2 -15z"/>
<path d="M2675 4811 c-3 -5 -2 -12 3 -15 5 -3 9 1 9 9 0 17 -3 19 -12 6z"/>
<path d="M2993 4363 c9 -2 25 -2 35 0 9 3 1 5 -18 5 -19 0 -27 -2 -17 -5z"/>
<path d="M3992 5275 c-55 -17 -77 -37 -111 -100 -25 -47 -26 -58 -26 -195 0
-99 4 -158 14 -185 47 -134 188 -197 299 -135 88 49 127 155 120 319 -8 160
-44 226 -140 252 -42 11 -82 39 -56 39 10 0 9 3 -2 10 -20 13 -46 12 -98 -5z"/>
<path d="M4118 5273 c7 -3 16 -2 19 1 4 3 -2 6 -13 5 -11 0 -14 -3 -6 -6z"/>
<path d="M8260 5281 c-84 -17 -146 -67 -178 -141 -20 -48 -18 -274 4 -325 40
-95 149 -167 254 -167 95 0 159 43 202 137 20 43 23 66 23 165 0 106 -2 119
-27 166 -15 29 -44 66 -65 84 -38 32 -38 32 -5 14 49 -28 70 -54 91 -115 11
-30 20 -45 20 -34 1 38 -46 121 -92 161 -66 58 -131 74 -227 55z m113 -38 c-7
-2 -19 -2 -25 0 -7 3 -2 5 12 5 14 0 19 -2 13 -5z"/>
<path d="M7087 5283 c13 -2 57 -22 100 -44 42 -21 78 -37 80 -35 2 2 -12 17
-33 34 -36 30 -103 53 -146 51 l-23 -2 22 -4z"/>
<path d="M6150 4390 c20 -13 90 -13 90 0 0 6 -24 10 -52 10 -38 0 -49 -3 -38
-10z"/>
</g>
</svg>
